<svg width="1042" height="346" xmlns="http://www.w3.org/2000/svg" xmlns:xlink="http://www.w3.org/1999/xlink" overflow="hidden"><defs><clipPath id="clip0"><rect x="105" y="194" width="1042" height="346"/></clipPath></defs><g clip-path="url(#clip0)" transform="translate(-105 -194)"><text font-family="Arial,Arial_MSFontService,sans-serif" font-weight="400" font-size="21" transform="translate(264.407 323)">Score<tspan font-size="21" x="6.4537" y="163">MIDI</tspan></text><path d="M162.591 68 137.608 42.789 150.864 42.789C138.999 16.9492 110.223 2.23856e-05 78.2194 2.23856e-05L90.5239 0C122.528 0 151.303 16.9492 163.169 42.789L176.426 42.789Z" fill="#CC66FF" fill-rule="evenodd" transform="matrix(-1.83697e-16 -1 -1 1.83697e-16 978 431)"/><path d="M84.3717 0.210582C43.6847 3.00132 12.3045 32.5188 12.3045 67.9999L0 68C-1.15855e-14 30.4446 35.02 0 78.2194 0 80.2725 1.15855e-14 82.3249 0.0702765 84.3717 0.210666Z" fill="#A452CD" fill-rule="evenodd" transform="matrix(-1.83697e-16 -1 -1 1.83697e-16 978 431)"/><path d="M0 19 15 0 30 19Z" fill="#D9D9D9" fill-rule="evenodd" transform="matrix(1 0 0 -1 278 364)"/><path d="M262 222 314.5 222 325 232.5 325 298 262 298Z" stroke="#F4B183" stroke-width="2" stroke-miterlimit="8" fill="none" fill-rule="evenodd"/><text font-family="Arial,Arial_MSFontService,sans-serif" font-weight="400" font-size="19" transform="translate(268.79 267)">Music<tspan font-size="19" x="5.16666" y="23">XML</tspan></text><path d="M262 382 314.5 382 325 392.5 325 459 262 459Z" stroke="#BDD7EE" stroke-width="2" stroke-miterlimit="8" fill="none" fill-rule="evenodd"/><text font-family="Arial,Arial_MSFontService,sans-serif" font-weight="400" font-size="21" transform="translate(270.623 449)">SMF<tspan fill="#595959" font-weight="700" font-size="19" x="-146.805" y="-91">1.</tspan><tspan fill="#595959" font-weight="700" font-size="19" x="-126.138" y="-91">down</tspan><tspan fill="#595959" font-weight="700" font-size="19" x="-77.6382" y="-91">-</tspan><tspan fill="#595959" font-weight="700" font-size="19" x="-71.4715" y="-91">convert</tspan><tspan font-size="19" x="298.092" y="-119">Score token sequence</tspan><tspan font-size="19" x="304.826" y="40">MIDI token sequence</tspan><tspan fill="#CC66FF" font-weight="700" font-size="21" x="721.93" y="-96">3. restore</tspan><tspan fill="#595959" font-weight="700" font-size="19" x="63.67" y="-147">2. tokenize</tspan><tspan fill="#FF0000" font-family="Consolas,Consolas_MSFontService,sans-serif" font-weight="700" font-size="21" x="175.767" y="-206">R</tspan><tspan fill="#C55A11" font-family="Consolas,Consolas_MSFontService,sans-serif" font-weight="700" font-size="21" x="197.767" y="-206">bar</tspan><tspan fill="#FF9900" font-family="Consolas,Consolas_MSFontService,sans-serif" font-weight="700" font-size="21" x="244.434" y="-206">clef_treble</tspan><tspan fill="#FF9900" font-family="Consolas,Consolas_MSFontService,sans-serif" font-weight="700" font-size="21" x="384.434" y="-206">key_sharp_1 time_2/4 </tspan><tspan font-family="Consolas,Consolas_MSFontService,sans-serif" font-weight="700" font-size="21" x="175.767" y="-180">note_E4 note_D4 note_G#3 len_2 </tspan><tspan font-family="Consolas,Consolas_MSFontService,sans-serif" font-weight="700" font-size="21" x="537.434" y="-180">stem_up</tspan><tspan fill="#C55A11" font-family="Consolas,Consolas_MSFontService,sans-serif" font-weight="700" font-size="21" x="175.767" y="-155">bar</tspan><tspan font-family="Consolas,Consolas_MSFontService,sans-serif" font-weight="700" font-size="21" x="222.434" y="-155">… </tspan><tspan fill="#FF0000" font-family="Consolas,Consolas_MSFontService,sans-serif" font-weight="700" font-size="21" x="245.767" y="-155">L</tspan><tspan fill="#C55A11" font-family="Consolas,Consolas_MSFontService,sans-serif" font-weight="700" font-size="21" x="269.1" y="-155">bar</tspan><tspan fill="#FF9900" font-family="Consolas,Consolas_MSFontService,sans-serif" font-weight="700" font-size="21" x="315.767" y="-155">clef_bass</tspan><tspan fill="#FF9900" font-family="Consolas,Consolas_MSFontService,sans-serif" font-weight="700" font-size="21" x="432.434" y="-155">key_sharp_1 </tspan><tspan font-family="Consolas,Consolas_MSFontService,sans-serif" font-weight="700" font-size="21" x="572.434" y="-155">…</tspan><tspan fill="#C00000" font-family="Consolas,Consolas_MSFontService,sans-serif" font-weight="700" font-size="21" x="176.935" y="-48">bar</tspan><tspan font-family="Consolas,Consolas_MSFontService,sans-serif" font-weight="700" font-size="21" x="223.602" y="-48">note_64 len_48 note_62 len_48 </tspan><tspan font-family="Consolas,Consolas_MSFontService,sans-serif" font-weight="700" font-size="21" x="176.935" y="-22">note_56 len_48 note_52 len_12 note_47 </tspan><tspan font-family="Consolas,Consolas_MSFontService,sans-serif" font-weight="700" font-size="21" x="176.935" y="3">len_24 </tspan><tspan fill="#C00000" font-family="Consolas,Consolas_MSFontService,sans-serif" font-weight="700" font-size="21" x="258.602" y="3">pos_12</tspan><tspan font-family="Consolas,Consolas_MSFontService,sans-serif" font-weight="700" font-size="21" x="340.269" y="3">note_54 len_12 </tspan><tspan fill="#C00000" font-family="Consolas,Consolas_MSFontService,sans-serif" font-weight="700" font-size="21" x="515.269" y="3">beat</tspan><tspan font-family="Consolas,Consolas_MSFontService,sans-serif" font-weight="700" font-size="21" x="573.602" y="3">…</tspan><tspan fill="#595959" font-weight="700" font-size="19" x="64.571" y="10">2. tokenize</tspan></text><rect x="440" y="378" width="462" height="89" stroke="#BDD7EE" stroke-width="2" stroke-miterlimit="8" fill="none"/><rect x="439" y="220" width="463" height="89" stroke="#F4B183" stroke-width="2" stroke-miterlimit="8" fill="none"/><path d="M399.375 441 399.375 431.5 346 431.5 346 412.5 399.375 412.5 399.375 403 426 422Z" fill="#DEEBF7" fill-rule="evenodd"/><path d="M396.269 283 396.269 273.218 346 273.218 346 254.782 396.269 254.782 396.269 245 426 264Z" fill="#FFE699" fill-rule="evenodd"/><rect x="108.5" y="196.5" width="1011" height="314" stroke="#FFD966" stroke-width="3" stroke-miterlimit="8" fill="none"/><rect x="922" y="491" width="223" height="38" stroke="#FFC000" stroke-width="2" stroke-linejoin="round" stroke-miterlimit="10" fill="#FFFFFF"/><text fill="#FF6600" font-family="Segoe UI,Segoe UI_MSFontService,sans-serif" font-weight="700" font-size="24" transform="translate(940.423 518)">Training Scheme</text></g></svg>